<?xml version="1.0" encoding="UTF-8" standalone="no"?>
<!-- Created with Inkscape (http://www.inkscape.org/) -->
<svg
   xmlns:dc="http://purl.org/dc/elements/1.1/"
   xmlns:cc="http://creativecommons.org/ns#"
   xmlns:rdf="http://www.w3.org/1999/02/22-rdf-syntax-ns#"
   xmlns:svg="http://www.w3.org/2000/svg"
   xmlns="http://www.w3.org/2000/svg"
   xmlns:sodipodi="http://sodipodi.sourceforge.net/DTD/sodipodi-0.dtd"
   xmlns:inkscape="http://www.inkscape.org/namespaces/inkscape"
   width="787.01196"
   height="814.33093"
   id="svg2"
   sodipodi:version="0.32"
   inkscape:version="0.46"
   version="1.0"
   sodipodi:docname="ma_perfil.svg"
   inkscape:output_extension="org.inkscape.output.svg.inkscape">
  <defs
     id="defs4">
    <inkscape:perspective
       sodipodi:type="inkscape:persp3d"
       inkscape:vp_x="0 : 526.18109 : 1"
       inkscape:vp_y="0 : 1000 : 0"
       inkscape:vp_z="744.09448 : 526.18109 : 1"
       inkscape:persp3d-origin="372.04724 : 350.78739 : 1"
       id="perspective10" />
    <inkscape:perspective
       id="perspective3100"
       inkscape:persp3d-origin="372.04724 : 350.78739 : 1"
       inkscape:vp_z="744.09448 : 526.18109 : 1"
       inkscape:vp_y="0 : 1000 : 0"
       inkscape:vp_x="0 : 526.18109 : 1"
       sodipodi:type="inkscape:persp3d" />
  </defs>
  <sodipodi:namedview
     id="base"
     pagecolor="#ffffff"
     bordercolor="#666666"
     borderopacity="1.0"
     gridtolerance="10000"
     guidetolerance="10"
     objecttolerance="10"
     inkscape:pageopacity="0.0"
     inkscape:pageshadow="2"
     inkscape:zoom="0.35"
     inkscape:cx="375"
     inkscape:cy="520"
     inkscape:document-units="px"
     inkscape:current-layer="capa1"
     showgrid="false"
     inkscape:window-width="1440"
     inkscape:window-height="834"
     inkscape:window-x="-4"
     inkscape:window-y="-4" />
  <metadata
     id="metadata7">
    <rdf:RDF>
      <cc:Work
         rdf:about="">
        <dc:format>image/svg+xml</dc:format>
        <dc:type
           rdf:resource="http://purl.org/dc/dcmitype/StillImage" />
      </cc:Work>
    </rdf:RDF>
  </metadata>
  <g
     inkscape:label="Capa 1"
     inkscape:groupmode="layer"
     id="capa1"
     transform="translate(781.57147,63.233471)">
    <path
       style="fill:#000000"
       d="M -471.07147,750.26467 C -472.72147,750.06157 -479.63487,749.21037 -486.43457,748.37317 C -503.52387,746.26897 -508.75987,743.78537 -519.49647,732.69047 C -530.27747,721.54967 -536.05877,713.70707 -538.48067,706.93767 C -540.44177,701.45637 -541.05027,697.50017 -544.17297,669.93357 C -545.69547,656.49287 -546.06037,655.06357 -549.16777,650.36878 C -555.99457,640.05448 -556.93187,636.75728 -557.39177,621.43908 C -557.79067,608.14918 -557.95017,607.24288 -560.56037,603.43908 C -563.32017,599.41708 -565.57147,591.48108 -565.57147,585.77418 C -565.57147,583.47168 -566.68297,581.61738 -570.05687,578.29118 C -572.52377,575.85908 -575.64767,571.45258 -576.99877,568.49878 C -578.34977,565.54508 -580.42587,562.44848 -581.61227,561.61758 C -586.48897,558.20178 -591.62637,548.72788 -595.02577,536.88198 C -597.67257,527.65848 -599.69167,523.93358 -602.04467,523.93358 C -604.78297,523.93358 -611.67367,517.24488 -614.15037,512.18268 C -617.09167,506.17078 -617.88677,495.12788 -617.80397,461.43358 C -617.75847,442.91613 -617.22897,440.3063 -611.71667,431.43358 C -610.00827,428.68358 -607.52667,424.18358 -606.20217,421.43358 C -601.12317,410.88838 -590.80257,401.72779 -579.67037,397.88374 C -572.08897,395.26586 -558.19217,395.4797 -552.53617,398.30128 C -548.15907,400.48484 -548.08127,400.46296 -545.66547,396.36832 C -542.57907,391.13729 -536.33937,383.93358 -534.89487,383.93358 C -534.20567,383.93358 -533.16987,383.05181 -532.59307,381.97409 C -531.38047,379.70825 -527.35287,377.69714 -519.57147,375.47192 C -515.48997,374.30478 -512.26997,372.31618 -507.08697,367.76172 C -490.86347,353.50577 -482.12457,353.51944 -468.09827,367.8227 C -462.40387,373.62956 -460.55257,374.93358 -458.00327,374.93358 C -454.47357,374.93358 -451.57147,372.33291 -451.57147,369.16994 C -451.57147,368.01155 -451.04997,365.79698 -450.41267,364.24868 C -449.77527,362.70037 -449.21277,356.02896 -449.16267,349.42331 C -449.05047,334.651 -446.14537,327.67893 -436.07817,318.02075 C -426.44387,308.77789 -421.99917,307.46841 -400.76037,307.61552 C -381.49277,307.74897 -376.72757,308.8308 -365.51277,315.6177 C -359.95407,318.98166 -359.95407,318.98166 -353.01277,315.81198 C -347.16507,313.14171 -344.52197,312.56477 -336.23717,312.15019 C -330.30147,311.85316 -326.23167,311.21187 -325.97107,310.53252 C -325.73347,309.91347 -324.67747,303.78796 -323.62437,296.92028 C -319.48617,269.93365 -313.18657,245.89838 -308.93727,240.88393 C -308.21497,240.03163 -306.92787,237.3611 -306.07697,234.94942 C -303.91637,228.82564 -297.55317,220.93544 -288.91867,213.67358 C -281.57147,207.49441 -281.57147,207.49441 -281.56307,186.96399 C -281.55507,167.09721 -280.05187,150.91467 -275.53507,122.06935 C -274.90087,118.01903 -274.61177,113.51903 -274.89267,112.06935 C -275.62247,108.30282 -273.71137,92.076211 -272.05007,87.933581 C -269.02577,80.392111 -268.28207,74.820781 -268.17867,58.933581 C -268.07147,42.433581 -268.07147,42.433581 -263.97747,33.933581 C -255.95237,17.271461 -246.23097,10.933581 -228.69897,10.933581 C -218.06757,10.933581 -217.49887,11.046931 -210.89407,14.482301 C -193.34417,23.610681 -184.57147,39.954151 -184.57147,63.521181 C -184.57147,79.082361 -186.16807,87.936071 -191.49877,101.93358 C -194.11687,108.80858 -197.49577,119.15858 -199.00737,124.93358 C -202.30807,137.54415 -209.02737,159.95879 -214.47297,176.52422 C -216.65897,183.17407 -219.41147,192.39907 -220.58977,197.02422 C -221.76807,201.64937 -224.04597,208.27748 -225.65177,211.75335 C -227.25757,215.22922 -228.57147,218.27962 -228.57147,218.53202 C -228.57147,218.78441 -230.86537,221.94676 -233.66907,225.55945 C -236.47287,229.17213 -239.17287,233.54376 -239.66907,235.27417 C -241.12797,240.36099 -240.77557,247.51928 -238.99337,248.99832 C -236.33547,251.20421 -232.49047,259.82155 -231.88567,264.92793 C -231.14727,271.16305 -231.94177,274.13492 -235.42487,278.16524 C -237.36497,280.41018 -239.88907,286.4618 -243.48567,297.49179 C -248.72187,313.54999 -248.72187,313.54999 -246.57697,319.91718 C -243.87817,327.92827 -245.06847,338.43904 -250.03277,350.43358 C -252.59017,356.6126 -253.37107,362.47251 -252.63147,369.93358 C -251.55977,380.74436 -253.02507,390.98729 -256.54177,397.26665 C -258.67587,401.07742 -259.61457,404.4021 -260.11797,409.93358 C -261.20877,421.91737 -264.15507,434.81001 -270.01587,453.24557 C -277.65477,477.27408 -277.44447,474.96758 -272.33177,478.63928 C -269.93857,480.35788 -264.14367,485.51478 -259.45417,490.09888 C -254.76477,494.68298 -248.59127,500.37658 -245.73547,502.75128 C -242.87957,505.12608 -239.64327,508.83258 -238.54377,510.98788 C -237.20117,513.61958 -235.15307,515.60278 -232.30797,517.02618 C -229.97787,518.19188 -226.49647,520.63908 -224.57147,522.46438 C -220.19057,526.61828 -210.81417,532.93358 -209.02767,532.93358 C -208.28907,532.93358 -207.08677,532.07978 -206.35587,531.03628 C -205.62497,529.99268 -203.01197,528.12118 -200.54917,526.87728 C -196.22017,524.69078 -194.50017,523.37138 -188.76327,517.83648 C -187.28277,516.40808 -183.93637,514.23168 -181.32697,512.99998 C -178.71747,511.76828 -176.32897,510.35038 -176.01917,509.84898 C -175.70927,509.34768 -173.11927,507.82868 -170.26357,506.47338 C -167.40787,505.11808 -164.50507,503.09228 -163.81297,501.97148 C -163.12077,500.85058 -161.93837,499.93358 -161.18537,499.93358 C -160.43237,499.93358 -159.26387,499.26788 -158.58867,498.45438 C -156.71387,496.19538 -152.12777,494.19088 -145.85477,492.88858 C -142.73227,492.24038 -138.39997,490.52278 -136.22737,489.07178 C -131.41807,485.85988 -120.44977,479.93358 -119.31427,479.93358 C -116.71257,479.93358 -112.00837,474.56058 -108.53597,467.62298 C -104.93927,460.43687 -93.268771,444.99243 -90.070571,443.18621 C -89.337671,442.77226 -85.662971,439.65738 -81.904671,436.26425 C -61.712771,418.03418 -54.803271,413.18355 -45.571471,410.75721 C -23.645571,404.99462 -3.5189714,415.31017 3.4032286,435.85843 C 7.5385286,448.1339 6.0477286,455.34129 -7.3378714,487.78618 C -10.182571,494.68138 -16.743571,504.99998 -22.465971,511.57838 C -29.918971,520.14618 -47.798171,532.76988 -54.948471,534.51288 C -56.677271,534.93428 -58.473171,536.40578 -59.448471,538.19988 C -64.032571,546.63308 -69.503371,550.20728 -79.734271,551.45278 C -87.695371,552.42208 -92.612071,558.30458 -95.457671,570.26478 C -96.929671,576.45158 -103.40647,586.05068 -110.41557,592.43358 C -122.37087,603.32078 -132.39887,613.67498 -135.59647,618.43358 C -139.19487,623.78848 -149.09827,633.67228 -151.57147,634.37688 C -163.98027,637.91218 -167.87397,639.32828 -170.97837,641.43498 C -173.00337,642.80918 -175.22927,643.93358 -175.92467,643.93358 C -176.62017,643.93358 -178.06267,644.59428 -179.13027,645.40178 C -180.19787,646.20928 -181.70397,646.88428 -182.47707,646.90178 C -183.25007,646.91928 -185.50007,648.17018 -187.47707,649.68168 C -189.45397,651.19308 -193.28537,653.21147 -195.99137,654.16697 C -198.69727,655.12247 -201.85347,656.78937 -203.00497,657.87117 C -204.15657,658.95297 -206.89257,660.57407 -209.08507,661.47347 C -211.27757,662.37297 -214.87147,664.81757 -217.07147,666.90597 C -221.83437,671.42737 -237.66027,679.91887 -241.41747,679.96897 C -244.83347,680.01467 -247.85747,681.73737 -250.55137,685.17257 C -251.73267,686.67897 -255.08997,689.49837 -258.01197,691.43797 C -260.93407,693.37747 -265.41277,696.80227 -267.96477,699.04867 C -273.28127,703.72837 -285.01707,708.98627 -296.89417,712.00977 C -301.39167,713.15467 -306.42147,714.66757 -308.07147,715.37197 C -315.45547,718.52387 -317.11487,719.02107 -323.40127,719.96477 C -332.69307,721.35967 -344.98117,723.37067 -359.07147,725.80237 C -365.67147,726.94137 -377.14647,728.34177 -384.57147,728.91437 C -407.44777,730.67867 -412.71217,731.99977 -421.34297,738.14197 C -437.59367,749.70717 -450.34517,752.81567 -471.07147,750.26467 z M -670.14917,426.57786 C -675.39747,424.1856 -680.35657,419.06732 -682.20307,414.13698 C -684.44247,408.15757 -701.79597,386.59679 -710.40597,379.09638 C -732.57427,359.78494 -747.35527,344.63054 -752.89357,335.53545 C -755.20377,331.74148 -757.76387,328.3266 -758.58267,327.94682 C -777.31237,319.25957 -781.57147,313.64537 -781.57147,297.64385 C -781.57147,285.88493 -779.98107,280.59754 -775.31697,276.84934 C -771.79457,274.01862 -771.14397,273.82437 -769.01057,274.96614 C -767.15117,275.96126 -765.16977,275.99698 -759.93607,275.12972 C -752.05057,273.82305 -751.93497,273.86994 -750.57357,278.92551 C -749.37607,283.37276 -747.50137,284.92197 -736.05377,290.92426 C -731.66347,293.2262 -727.17147,295.8972 -726.07147,296.85982 C -724.97147,297.82245 -722.27147,299.66537 -720.07147,300.95521 C -717.87147,302.24506 -714.54947,304.60631 -712.68927,306.20244 C -710.82917,307.79858 -706.10417,310.57023 -702.18927,312.36168 C -695.09347,315.60877 -681.86837,323.63385 -678.07147,326.99662 C -676.97147,327.97083 -671.57147,331.34729 -666.07147,334.49987 C -644.14707,347.06683 -634.05897,361.05251 -632.85607,380.54791 C -631.61487,400.66508 -638.68987,419.47106 -649.53877,424.892 C -655.21717,427.72937 -665.73537,428.58972 -670.14917,426.57786 z M -538.95517,305.17854 C -547.56947,298.57287 -549.34497,295.23181 -559.01447,267.43358 C -563.79337,253.69499 -564.32837,252.60361 -570.28637,244.44118 C -578.12567,233.70154 -589.01847,210.73885 -593.55807,195.38337 C -595.82627,187.71099 -598.59327,179.18358 -599.70697,176.43358 C -600.82067,173.68358 -605.29717,162.43358 -609.65477,151.43358 C -614.01227,140.43358 -618.74667,129.18358 -620.17547,126.43358 C -626.98217,113.33326 -628.75627,109.5384 -631.02327,103.23032 C -634.55317,93.408231 -635.49997,88.777891 -636.50667,76.414021 C -637.00017,70.353261 -638.38227,61.227591 -639.57787,56.134771 C -644.45897,35.344121 -641.53927,21.853891 -630.56297,14.482141 C -624.01787,10.086411 -610.38337,9.5207714 -603.26737,13.349771 C -589.81927,20.586021 -579.68437,30.201131 -575.31937,39.864191 C -563.71467,65.554751 -557.89107,91.816321 -558.89667,113.92267 C -559.52497,127.73427 -559.52497,127.73427 -554.63547,137.08393 C -551.94617,142.22624 -549.28877,148.23358 -548.72997,150.43358 C -545.83687,161.82474 -544.38047,171.03174 -544.84367,175.00276 C -545.38397,179.63467 -538.70217,202.25125 -530.92527,222.11339 C -525.88967,234.97425 -523.99777,243.37912 -525.43057,246.52368 C -526.34977,248.54123 -526.24987,250.23893 -524.94647,254.74973 C -522.54137,263.07273 -516.94017,280.04288 -515.64387,282.93358 C -513.51937,287.67143 -526.81947,308.94032 -531.89937,308.92854 C -533.09397,308.92577 -536.26907,307.23827 -538.95517,305.17854 z M -411.42837,259.51435 C -425.56227,258.22407 -424.99117,258.58402 -432.21507,246.41421 C -436.35877,239.43358 -436.35877,239.43358 -436.91487,219.43358 C -437.22077,208.43358 -438.20287,193.65458 -439.09737,186.59136 C -440.49067,175.58918 -440.54107,172.43702 -439.44897,164.59136 C -437.19857,148.42466 -437.71957,124.48045 -440.46407,117.93358 C -442.41337,113.28389 -442.90657,109.67866 -443.65447,94.614161 C -444.14107,84.813471 -444.74667,76.459091 -445.00017,76.048851 C -446.66517,73.354781 -450.45067,52.018501 -450.46557,45.244021 C -450.47527,40.862081 -451.17167,33.937121 -452.01337,29.855221 C -452.85497,25.773321 -453.79137,15.683581 -454.09417,7.4335814 C -454.39687,-0.81641857 -454.88137,-13.187239 -455.17057,-20.057119 C -455.78437,-34.634099 -454.94487,-38.631289 -449.50047,-47.054839 C -437.38887,-65.793869 -411.79927,-68.833339 -398.35737,-53.129489 C -388.01017,-41.041059 -385.02917,-28.453829 -383.06717,11.433581 C -382.28257,27.383581 -381.18367,48.533581 -380.62527,58.433581 C -380.06677,68.333581 -379.60117,87.097271 -379.59057,100.13067 C -379.57167,123.5047 -379.60547,123.89185 -382.07147,128.5296 C -384.42487,132.95591 -384.57147,134.1299 -384.57147,148.56228 C -384.57147,160.31636 -384.19617,164.83098 -382.96297,167.91308 C -382.01517,170.28192 -381.62157,172.99727 -382.00477,174.52408 C -382.47077,176.38086 -381.88807,178.42391 -379.94847,181.73368 C -377.24177,186.35225 -377.24177,186.35225 -377.31597,208.89292 C -377.41077,237.66786 -378.09487,240.03926 -388.60617,248.03038 C -393.56537,251.80055 -395.57147,253.96867 -395.57147,255.5582 C -395.57147,257.34004 -398.14727,261.39586 -398.89287,260.78799 C -398.99107,260.70792 -404.63207,260.13478 -411.42837,259.51435 z"
       id="path3106" />
  </g>
</svg>
